<svg width="101" height="20" viewBox="0 0 101 20" fill="none" xmlns="http://www.w3.org/2000/svg">
<path d="M31.7563 9.6192C32.7727 9.05934 33.214 8.27422 33.214 7.06841V5.41023C33.214 2.99373 31.7641 1.81908 28.7818 1.81908H22.7228C22.6125 1.81911 22.5068 1.86295 22.4288 1.94095C22.3508 2.01895 22.307 2.12472 22.307 2.23501V17.7651C22.307 17.8754 22.3508 17.9812 22.4288 18.0592C22.5068 18.1372 22.6125 18.181 22.7228 18.1811H29.2143C32.1073 18.1811 33.7667 16.7757 33.7667 14.3258V12.6196C33.7667 11.1588 33.0245 10.0677 31.7563 9.6192ZM25.6918 4.67515H28.4214C29.6587 4.67515 29.8295 5.21309 29.8295 5.7946V7.21247C29.8295 8.13188 29.4011 8.52444 28.3973 8.52444H27.8052C27.7506 8.52441 27.6966 8.53513 27.6461 8.556C27.5956 8.57688 27.5498 8.60749 27.5112 8.64609C27.4725 8.68469 27.4419 8.73053 27.421 8.78098C27.4001 8.83143 27.3893 8.8855 27.3893 8.94011V10.8918C27.3893 11.0021 27.4331 11.1079 27.5111 11.1859C27.5891 11.2639 27.6949 11.3078 27.8052 11.3078H28.8781C29.9463 11.3078 30.3822 11.7228 30.3822 12.7396V13.9412C30.3822 14.9759 29.9357 15.325 28.6137 15.325H25.6918V4.67515Z" fill="#3F3F3F"/>
<path d="M0.100136 9.36686C0.445426 9.57721 1.17786 9.80208 2.1971 9.80208C2.69199 9.80208 3.16893 9.74794 3.5743 9.64521C3.59662 9.63961 3.61662 9.62714 3.63148 9.60956C3.64633 9.59198 3.65529 9.57018 3.65709 9.54723C3.72068 8.77469 3.93416 8.02194 4.28561 7.33104C4.2923 7.31786 4.29626 7.30347 4.29726 7.28872C4.29827 7.27397 4.29629 7.25918 4.29144 7.24521C4.2866 7.23125 4.27899 7.21841 4.26907 7.20745C4.25915 7.19649 4.24713 7.18764 4.23372 7.18144C3.83297 6.99579 3.41902 6.75045 3.03609 6.4725C2.44811 6.04548 1.94991 5.56181 1.59525 5.07431C1.58265 5.05693 1.56524 5.04361 1.54517 5.03599C1.52509 5.02837 1.50323 5.02679 1.48227 5.03143C1.46131 5.03608 1.44217 5.04675 1.42719 5.06213C1.41221 5.07751 1.40206 5.09694 1.39798 5.11801C1.26778 5.78681 1.08517 6.48412 0.855417 7.19107C0.621306 7.91163 0.352732 8.5964 0.0577504 9.22637C0.046254 9.2509 0.0442223 9.2788 0.0520453 9.30473C0.0598684 9.33066 0.0769947 9.35279 0.100136 9.36686ZM4.49833 13.2262C4.51305 13.2085 4.52185 13.1866 4.52351 13.1636C4.52516 13.1406 4.51959 13.1176 4.50757 13.098C4.10288 12.4365 3.83237 11.7019 3.71149 10.9359C3.70918 10.9213 3.70394 10.9073 3.69608 10.8948C3.68822 10.8822 3.6779 10.8714 3.66575 10.863C3.6536 10.8545 3.63987 10.8486 3.62538 10.8456C3.61088 10.8426 3.59593 10.8425 3.58143 10.8455C3.14991 10.9308 2.67126 10.9759 2.1971 10.9759C1.47007 10.9759 0.78253 10.8774 0.209203 10.6907C0.201441 10.6743 0.189721 10.66 0.175093 10.6492C0.160466 10.6384 0.143387 10.6314 0.12539 10.6289C0.107393 10.6263 0.0890392 10.6282 0.0719745 10.6345C0.0549098 10.6408 0.0396676 10.6512 0.0276147 10.6648C0.0155618 10.6784 0.00707488 10.6948 0.00291486 10.7125C-0.00124517 10.7302 -0.000948213 10.7486 0.00377908 10.7662C0.00850637 10.7837 0.0175161 10.7999 0.0300007 10.8131C0.0424853 10.8263 0.0580545 10.8362 0.075312 10.8419C0.363164 11.4603 0.6254 12.1321 0.854889 12.8388C1.08913 13.5591 1.27452 14.271 1.40603 14.9542C1.41118 14.9809 1.42599 15.0047 1.44763 15.0212C1.46927 15.0376 1.49621 15.0454 1.52329 15.0432C1.92747 15.0099 2.65238 14.761 3.47553 14.163C3.87654 13.8719 4.23015 13.5478 4.49833 13.2262ZM10.4959 1.24522C10.4793 1.20752 10.4539 1.17434 10.4218 1.14843C10.3898 1.12253 10.352 1.10465 10.3116 1.09628L5.05647 0.00534375C5.00514 -0.0052263 4.95182 -3.89324e-05 4.90349 0.0202251C4.85517 0.0404891 4.81409 0.0748839 4.78565 0.1189C4.75734 0.163013 4.74304 0.214664 4.74465 0.267057C4.74625 0.319449 4.76367 0.37013 4.79463 0.41243L5.58424 1.48818C5.13366 1.88879 4.66345 2.26676 4.17535 2.6207C3.56254 3.06582 2.94287 3.46221 2.33402 3.79852C2.31025 3.8116 2.29215 3.833 2.28321 3.85862C2.27426 3.88424 2.2751 3.91226 2.28557 3.93729C2.44138 4.31071 2.90167 4.92325 3.72615 5.52233C4.12716 5.81374 4.54467 6.0497 4.9338 6.20512C4.94701 6.21053 4.96087 6.2133 4.9746 6.2133C4.99054 6.21326 5.00628 6.20978 5.02074 6.2031C5.03521 6.19642 5.04807 6.18671 5.05845 6.17462C5.59588 5.54644 6.2597 5.03862 7.0066 4.68426L7.2728 6.0225C7.28301 6.07401 7.30863 6.1212 7.34626 6.15783C7.38389 6.19445 7.43175 6.21879 7.48352 6.22761C7.53528 6.23643 7.58851 6.22931 7.63614 6.20721C7.68377 6.18511 7.72357 6.14906 7.75026 6.10384L10.4821 1.48197C10.503 1.44645 10.5152 1.40644 10.5176 1.36527C10.52 1.3241 10.5126 1.28295 10.4959 1.24522ZM7.31043 15.4812C6.58516 15.182 5.92552 14.7436 5.36875 14.1909C5.3583 14.1804 5.34583 14.1722 5.33211 14.1666C5.31838 14.1611 5.30368 14.1584 5.28889 14.1587C5.27409 14.159 5.25951 14.1623 5.24603 14.1684C5.23255 14.1745 5.22044 14.1833 5.21043 14.1942C4.9107 14.5165 4.54969 14.8346 4.16598 15.1133C3.57799 15.5405 2.9636 15.8647 2.39014 16.051C2.36974 16.0576 2.35171 16.07 2.33829 16.0867C2.32487 16.1035 2.31664 16.1238 2.31461 16.1451C2.31251 16.1665 2.31672 16.188 2.32671 16.207C2.33671 16.226 2.35206 16.2417 2.37086 16.2521C2.96664 16.583 3.5739 16.9724 4.17562 17.4097C4.79819 17.8621 5.37377 18.3354 5.88596 18.8166C5.90588 18.8354 5.93208 18.8461 5.95946 18.8465C5.98683 18.847 6.0134 18.8373 6.03398 18.8192C6.34626 18.5456 6.79111 17.9107 7.10352 16.9498C7.25563 16.4809 7.35083 16.0111 7.37843 15.5909C7.37996 15.5678 7.37423 15.5448 7.36204 15.5252C7.34984 15.5055 7.3318 15.4901 7.31043 15.4812ZM19.0514 10.6333C18.7058 10.4228 17.9731 10.1981 16.9533 10.1981C16.4579 10.1981 15.9822 10.2523 15.5769 10.3549C15.5546 10.3605 15.5346 10.373 15.5197 10.3905C15.5048 10.4081 15.4959 10.43 15.4941 10.4529C15.4333 11.2159 15.2159 11.9822 14.8659 12.6686C14.859 12.6817 14.8549 12.6962 14.8538 12.711C14.8527 12.7258 14.8546 12.7406 14.8595 12.7547C14.8643 12.7687 14.872 12.7816 14.882 12.7926C14.892 12.8035 14.9041 12.8123 14.9176 12.8184C15.3179 13.0037 15.7321 13.2489 16.115 13.5271C16.703 13.9544 17.2013 14.4377 17.5558 14.9254C17.5685 14.9427 17.5859 14.9559 17.606 14.9634C17.626 14.971 17.6478 14.9725 17.6687 14.9679C17.6896 14.9633 17.7088 14.9527 17.7238 14.9374C17.7388 14.9222 17.749 14.9029 17.7532 14.8819C17.8834 14.2136 18.0661 13.5163 18.2958 12.8089C18.5302 12.0881 18.7985 11.4034 19.0935 10.7739C19.1051 10.7494 19.1072 10.7215 19.0994 10.6955C19.0917 10.6695 19.0745 10.6474 19.0514 10.6333ZM14.6529 6.77382C14.6382 6.79156 14.6294 6.81346 14.6277 6.83645C14.6261 6.85944 14.6316 6.88237 14.6437 6.90204C15.0484 7.56335 15.3189 8.29794 15.4397 9.06383C15.4444 9.09367 15.4609 9.11981 15.4854 9.13724C15.4976 9.1457 15.5114 9.15161 15.526 9.15463C15.5405 9.15765 15.5555 9.15771 15.5701 9.1548C16.001 9.0695 16.4797 9.02435 16.9544 9.02435C17.6812 9.02435 18.3687 9.12285 18.942 9.30956C18.953 9.31303 18.9645 9.31485 18.9761 9.31497H18.9777C19.0385 9.31801 19.0891 9.26599 19.0891 9.20485C19.0892 9.18093 19.0814 9.15765 19.0669 9.13857C18.7828 8.52589 18.5236 7.86092 18.2963 7.16084C18.0625 6.44068 17.877 5.72884 17.7452 5.04552C17.7399 5.01894 17.7251 4.99521 17.7035 4.97882C17.6819 4.96242 17.6551 4.95449 17.6281 4.95653C17.2242 4.9898 16.4992 5.23857 15.6756 5.83685C15.2747 6.12814 14.9211 6.4523 14.6529 6.77382ZM11.8411 4.55129C12.5624 4.84799 13.2337 5.29416 13.7825 5.84187C13.8032 5.86237 13.8312 5.87386 13.8604 5.87382H13.8625C13.8773 5.87356 13.8919 5.87031 13.9054 5.86428C13.9189 5.85824 13.9311 5.84954 13.9412 5.8387C14.2407 5.51612 14.6017 5.19816 14.9854 4.91955C15.5736 4.49213 16.1876 4.16784 16.7612 3.98179C16.7815 3.97502 16.7994 3.96251 16.8127 3.94578C16.8261 3.92905 16.8343 3.90882 16.8363 3.88752C16.8384 3.86623 16.8343 3.84479 16.8244 3.82581C16.8145 3.80683 16.7994 3.79111 16.7808 3.78056C16.1847 3.44993 15.5777 3.06053 14.9757 2.62334C14.3537 2.17123 13.7781 1.69773 13.2654 1.21617C13.2455 1.19736 13.2193 1.18666 13.1919 1.18617C13.1645 1.18568 13.1379 1.19544 13.1174 1.21353C12.8051 1.48725 12.3602 2.12224 12.0481 3.08285C11.896 3.5516 11.8008 4.0214 11.7729 4.44169C11.7713 4.4648 11.7771 4.48782 11.7893 4.50748C11.8015 4.52715 11.8196 4.54248 11.8411 4.55129ZM15.4251 14.4776C15.0241 14.1861 14.6065 13.9502 14.2177 13.7946C14.1963 13.7861 14.1727 13.7845 14.1504 13.79C14.128 13.7955 14.1079 13.8079 14.0929 13.8254C13.5553 14.4534 12.8915 14.9612 12.1448 15.3158L11.8786 13.9774C11.8684 13.9258 11.8428 13.8786 11.8052 13.8419C11.7676 13.8052 11.7197 13.7809 11.6679 13.772C11.6161 13.7632 11.5628 13.7704 11.5152 13.7925C11.4675 13.8146 11.4277 13.8508 11.4011 13.896L8.66927 18.518C8.64829 18.5535 8.63607 18.5935 8.63365 18.6347C8.63122 18.6758 8.63865 18.717 8.65532 18.7547C8.67199 18.7924 8.69742 18.8256 8.7295 18.8515C8.76157 18.8774 8.79937 18.8952 8.83974 18.9036L14.0949 19.9945C14.1127 19.9981 14.1303 20 14.1477 20C14.29 20.0027 14.4094 19.8847 14.4094 19.7408C14.4094 19.6716 14.3821 19.6084 14.3377 19.562L13.567 18.5116C14.0175 18.111 14.4877 17.7329 14.9757 17.3789C15.5891 16.9335 16.2085 16.5374 16.8173 16.2014C16.841 16.1882 16.859 16.1667 16.8679 16.141C16.8768 16.1154 16.876 16.0874 16.8655 16.0623C16.7098 15.6892 16.2495 15.0768 15.4251 14.4776Z" fill="#3F3F3F"/>
<path d="M39.6557 5.88109C38.4116 5.88109 36.898 6.07718 35.7996 6.38087C35.701 6.40818 35.6158 6.47092 35.5605 6.5571C35.5052 6.64327 35.4836 6.74682 35.4999 6.84791L35.7875 8.63127C35.7963 8.68634 35.8161 8.73907 35.8458 8.7863C35.8754 8.83354 35.9143 8.87431 35.9601 8.90618C36.0058 8.93814 36.0574 8.96057 36.1119 8.97214C36.1665 8.98371 36.2228 8.98418 36.2775 8.97353C37.2992 8.77441 38.3539 8.66481 39.2471 8.66481C41.0205 8.66481 41.3041 9.03902 41.3041 10.241V11.2878H38.6705C36.1535 11.2878 35.0796 12.3257 35.0796 14.7586C35.0796 17.0865 36.2572 18.4215 38.31 18.4215C39.4976 18.4215 40.6868 18.0918 41.6859 17.4889L41.7913 17.8745C41.8153 17.9625 41.8675 18.0402 41.94 18.0956C42.0125 18.151 42.1012 18.181 42.1925 18.181H44.1764C44.2867 18.181 44.3924 18.1372 44.4704 18.0592C44.5484 17.9812 44.5923 17.8754 44.5923 17.7652V10.2888C44.5925 7.07555 43.2547 5.88109 39.6557 5.88109ZM41.3041 13.7593V15.206C40.8969 15.4233 40.1593 15.734 39.2712 15.734C38.5054 15.734 38.2723 15.5002 38.2723 14.7347C38.2723 13.9909 38.4167 13.7593 39.3196 13.7593H41.3041ZM61.0684 5.88109C59.7431 5.88109 57.9029 6.35618 56.4345 7.07185C55.985 6.28158 55.2164 5.88109 54.147 5.88109C52.8448 5.88109 51.0711 6.32991 49.5727 7.03343L49.3932 6.42035C49.368 6.33408 49.3154 6.2583 49.2435 6.20439C49.1716 6.15047 49.0841 6.12131 48.9942 6.12128H47.1747C47.0644 6.12131 46.9587 6.16513 46.8807 6.2431C46.8027 6.32107 46.7589 6.42681 46.7589 6.53708V17.7653C46.7589 17.8756 46.8027 17.9813 46.8807 18.0593C46.9587 18.1372 47.0644 18.1811 47.1747 18.1811H49.6316C49.7418 18.1811 49.8476 18.1373 49.9256 18.0593C50.0036 17.9813 50.0474 17.8756 50.0474 17.7653V9.9888C50.9327 9.53866 52.1771 9.07308 52.9211 9.07308C53.4745 9.07308 53.6801 9.27881 53.6801 9.83206V17.7652C53.6801 17.8754 53.724 17.9812 53.802 18.0592C53.88 18.1372 53.9858 18.181 54.096 18.181H56.5527C56.663 18.181 56.7687 18.1372 56.8467 18.0592C56.9247 17.9812 56.9685 17.8754 56.9685 17.7652V9.98417C57.8546 9.49324 59.1716 9.07308 59.8422 9.07308C60.3956 9.07308 60.6012 9.27894 60.6012 9.83233V17.7653C60.6013 17.8756 60.6451 17.9813 60.7231 18.0593C60.8011 18.1373 60.9069 18.1811 61.0172 18.1811H63.4739C63.5842 18.1811 63.69 18.1373 63.7679 18.0593C63.8459 17.9813 63.8897 17.8756 63.8897 17.7653V9.52005C63.8903 7.10526 62.9406 5.88109 61.0684 5.88109ZM72.7471 5.88109C71.5293 5.88109 70.2987 6.18215 69.4647 6.49443V1.93977C69.4647 1.71001 69.2786 1.52383 69.0489 1.52383H66.5922C66.482 1.5239 66.3763 1.56776 66.2983 1.64576C66.2204 1.72376 66.1767 1.82951 66.1767 1.93977V17.6381C66.1768 17.7355 66.2109 17.8297 66.2733 17.9045C66.3356 17.9793 66.4221 18.0299 66.5179 18.0475C68.0335 18.3238 69.8241 18.4219 70.8969 18.4219C75.5127 18.4219 76.4587 16.4581 76.4587 13.5094V10.0732C76.4582 7.29117 75.2094 5.88109 72.7471 5.88109ZM71.0406 15.5657C70.4183 15.5657 69.9007 15.5409 69.4644 15.4905V9.34601C70.1403 9.04324 71.0933 8.73704 71.8577 8.73704C72.7896 8.73704 73.1695 9.10306 73.1695 10.0005V13.605C73.1695 14.9053 72.8402 15.5657 71.0406 15.5657ZM83.2367 5.88109C79.7869 5.88109 77.9633 7.53836 77.9633 10.6738V13.6293C77.9633 16.7645 79.7869 18.4215 83.2367 18.4215C86.6865 18.4215 88.5098 16.7645 88.5098 13.6293V10.6738C88.5099 7.53796 86.6865 5.88109 83.2367 5.88109ZM81.2521 10.5774C81.2521 9.28726 81.8456 8.73704 83.2367 8.73704C84.6276 8.73704 85.2211 9.28765 85.2211 10.5774V13.7251C85.2211 15.0152 84.6277 15.5655 83.2367 15.5655C81.8456 15.5655 81.2521 15.0151 81.2521 13.7251V10.5774ZM95.1702 5.88109C91.7204 5.88109 89.8967 7.53836 89.8967 10.6738V13.6293C89.8967 16.7645 91.7204 18.4215 95.1702 18.4215C98.6198 18.4215 100.443 16.7645 100.443 13.6293V10.6738C100.443 7.53796 98.6198 5.88109 95.1702 5.88109ZM93.1855 10.5774C93.1855 9.28726 93.779 8.73704 95.1702 8.73704C96.5609 8.73704 97.1544 9.28765 97.1544 10.5774V13.7251C97.1544 15.0152 96.5609 15.5655 95.1702 15.5655C93.779 15.5655 93.1855 15.0151 93.1855 13.7251V10.5774Z" fill="#3F3F3F"/>
</svg>
