<svg width="16" height="14" viewBox="0 0 16 14" fill="none" xmlns="http://www.w3.org/2000/svg">
<path d="M13.5799 1.83273C13.8495 1.86362 14.0965 1.79637 14.3041 1.71437C14.1939 1.81391 14.0745 1.90773 13.9463 1.9961L13.5644 2.25928L13.7895 2.64487C13.7919 2.65033 13.7956 2.65846 13.7996 2.66697C13.8057 2.67969 13.8148 2.69805 13.8269 2.71888L14.0218 3.05278L14.394 2.94821C14.4372 2.93607 14.4804 2.92393 14.5236 2.91179C14.4305 2.99316 14.3346 3.07152 14.2359 3.14687C14.1504 3.212 14.0539 3.30449 13.9869 3.43943C13.9189 3.57628 13.9028 3.7131 13.9062 3.8321L13.9062 3.83221C13.9436 5.12983 13.7093 6.37494 13.2212 7.57524C12.4065 9.5753 11.1321 11.1394 9.27921 12.1161C6.93 13.3535 4.52705 13.4851 2.07933 12.5785C3.19813 12.3844 4.24785 11.9164 5.22709 11.1557L6.22416 10.381L4.96709 10.263C4.29539 10.1999 3.76571 10.001 3.3503 9.68569C3.10082 9.49631 2.88145 9.25648 2.69431 8.95969C2.84589 8.94754 3.00421 8.92665 3.1445 8.90813C3.21276 8.89912 3.27675 8.89068 3.33362 8.88408L3.77597 8.83273V8.38741C3.77597 8.38643 3.77597 8.3853 3.77598 8.38402C3.77605 8.36403 3.77625 8.30747 3.76318 8.24025L3.70269 7.92932L3.39571 7.85118C2.76026 7.68945 2.24432 7.35912 1.84512 6.83905C1.59802 6.51714 1.42669 6.17038 1.33207 5.79035C1.67458 5.89661 1.95737 5.93673 2.22748 5.89559L3.39629 5.71757L2.45441 5.00296C1.32936 4.14937 1.11064 2.86009 1.3653 1.8903C3.12498 3.74019 5.30174 4.77983 7.90409 4.96616L8.51614 5.00998L8.43546 4.40169C8.43108 4.36866 8.4281 4.34052 8.42505 4.31093L8.4243 4.30371C8.4216 4.27738 8.41814 4.24377 8.4135 4.21037L8.4125 4.20314L8.41128 4.19594C8.19182 2.89621 8.83948 1.63316 9.98282 1.10902C10.284 0.971039 10.4695 0.901417 10.8234 0.863811C11.0554 0.839173 11.1129 0.833374 11.2889 0.833374C11.31 0.833374 11.3363 0.836091 11.3694 0.841668C11.3835 0.844038 11.3957 0.846345 11.411 0.849242C11.4142 0.849859 11.4176 0.850502 11.4212 0.851179C11.4302 0.852875 11.4424 0.85516 11.4548 0.857236C11.4639 0.85876 11.4785 0.861112 11.4958 0.863083C12.0287 0.933534 12.4728 1.09883 12.7863 1.41543C13.0141 1.64688 13.2747 1.79778 13.5799 1.83273Z" fill="black" stroke="black"/>
</svg>
